# xmcd CD database file
#
# Track frame offsets:
#	150
#	16965
#	35439
#	50459
#	70503
#	92883
#	107375
#	121295
#	136547
#	153577
#	170246
#	189089
#	202152
#	219171
#	224887
#	246847
#	261407
#	279002
#
# Disc length: 4002 seconds
#
# Revision: 1
# Processed by: cddbd v1.5.2PL0 Copyright (c) Steve Scherf et al.
# Submitted via: CDex 1.51
#
DISCID=010fa012
DTITLE=Marciano - Meu Oficio é Cantar
DYEAR=2003
DGENRE=Sertanejo
TTITLE0=Tinha Que Acontecer (Cigana)
TTITLE1=Pout-Pourri - Seu Amor Ainda é Tudo - Ainda Ontem Chorei de Saudadei
TTITLE2=Suave é a Noite
TTITLE3=Se Voce Quiser Voltar
TTITLE4=Pout-Pourri - Um Brinde e Depois Não Sei - Aline
TTITLE5=Amor a la Mexicana
TTITLE6=Dia Sim, Dia Não
TTITLE7=Da Boca Pra Fora
TTITLE8=Amor Clandestino
TTITLE9=Telefone (Alô)
TTITLE10=É Saudade
TTITLE11=Gosto Amargo
TTITLE12=Qualquer Jeito
TTITLE13=Custe o que Custar
TTITLE14=Pout-Pourri - Outra Vez - Falando Sério
TTITLE15=Nossa Senhora Aparecida
TTITLE16=Quem Sabe Numa Dessa
TTITLE17=Bateu na Veia
EXTD=c a f é YEAR: 2003
EXTT0=
EXTT1=
EXTT2=
EXTT3=
EXTT4=
EXTT5=
EXTT6=
EXTT7=
EXTT8=
EXTT9=
EXTT10=
EXTT11=
EXTT12=
EXTT13=
EXTT14=
EXTT15=
EXTT16=
EXTT17=
PLAYORDER=
